:FULLY-SPECIFIED
:FORCE-ALL-JOINTS-BE-3DOF
:DEGREES
102
root 7.30973 16.7241 -26.8018 3.21295 10.7888 -3.65454
lfemur -26.2481 -0.25851 -12.2197
ltibia 38.9659 0 0
lfoot -17.5954 -5.47286 0
ltoes 23.939 0 0
rfemur -35.6435 -4.76942 5.28756
rtibia 77.3563 0 0
rfoot 21.5311 14.9477 0
rtoes 13.6521 0 0
lowerback 1.99503 1.63797 0.381853
upperback -0.606634 2.19684 1.79452
thorax -1.75273 1.10713 1.59651
lowerneck -10.5736 -4.62566 2.3778
upperneck -1.35933 -6.42391 0.934961
head 1.30564 -3.18619 -0.378976
lclavicle -7.93663e-15 1.6944e-15 0
lhumerus -46.0315 -10.2225 93.543
lradius 48.4314 0 0
lwrist 14.1142 0 0
lhand 5.00242 7.81354 0
lfingers 7.12502 0 0
lthumb 30.3543 35.1567 0
rclavicle -7.93663e-15 1.6944e-15 0
rhumerus -41.7906 1.56301 -72.8649
rradius 49.4191 0 0
rwrist 4.45775 0 0
rhand -22.1456 -16.6996 0
rfingers 7.12502 0 0
rthumb 4.2682 -46.6366 0
103
root 7.36495 16.7259 -26.7633 2.80785 11.1623 -3.4994
lfemur -25.5939 -0.8102 -12.3533
ltibia 38.5742 0 0
lfoot -17.5287 -6.03863 0
ltoes 24.1696 0 0
rfemur -37.0365 -4.76502 4.24382
rtibia 80.321 0 0
rfoot 24.4885 16.7345 0
rtoes 14.9328 0 0
lowerback 2.28456 1.51151 0.207135
upperback -0.529404 2.03338 1.85866
thorax -1.84913 1.02707 1.74926
lowerneck -10.5878 -4.67814 2.32456
upperneck -1.14134 -6.49262 0.906879
head 1.37792 -3.21752 -0.386041
lclavicle -8.58327e-15 8.23534e-16 0
lhumerus -46.1943 -10.3435 93.6614
lradius 48.6307 0 0
lwrist 14.3769 0 0
lhand 5.83423 8.11208 0
lfingers 7.12502 0 0
lthumb 31.1508 35.3406 0
rclavicle -8.58327e-15 8.23534e-16 0
rhumerus -42.0354 1.48217 -71.9447
rradius 49.6869 0 0
rwrist 4.31098 0 0
rhand -22.1426 -16.4871 0
rfingers 7.12502 0 0
rthumb 4.27109 -46.424 0
104
root 7.42018 16.7277 -26.7248 2.40276 11.5359 -3.34426
lfemur -24.9397 -1.36189 -12.487
ltibia 38.1825 0 0
lfoot -17.462 -6.60439 0
ltoes 24.4002 0 0
rfemur -38.4296 -4.76062 3.20008
rtibia 83.2857 0 0
rfoot 27.446 18.5214 0
rtoes 16.2135 0 0
lowerback 2.57409 1.38505 0.0324162
upperback -0.452175 1.86991 1.9228
thorax -1.94553 0.947016 1.90202
lowerneck -10.6021 -4.73063 2.27133
upperneck -0.923352 -6.56133 0.878797
head 1.45021 -3.24884 -0.393106
lclavicle -9.22991e-15 -4.73305e-17 0
lhumerus -46.3571 -10.4644 93.7799
lradius 48.8301 0 0
lwrist 14.6397 0 0
lhand 6.66605 8.41061 0
lfingers 7.12502 0 0
lthumb 31.9473 35.5245 0
rclavicle -9.22991e-15 -4.73305e-17 0
rhumerus -42.2802 1.40133 -71.0245
rradius 49.9548 0 0
rwrist 4.16421 0 0
rhand -22.1396 -16.2747 0
rfingers 7.12502 0 0
rthumb 4.27399 -46.2115 0
105
root 7.4754 16.7295 -26.6862 1.99767 11.9094 -3.18911
lfemur -24.2855 -1.91358 -12.6206
ltibia 37.7909 0 0
lfoot -17.3952 -7.17016 0
ltoes 24.6307 0 0
rfemur -39.8226 -4.75621 2.15633
rtibia 86.2504 0 0
rfoot 30.4035 20.3082 0
rtoes 17.4943 0 0
lowerback 2.86362 1.25859 -0.142302
upperback -0.374945 1.70645 1.98694
thorax -2.04193 0.866959 2.05478
lowerneck -10.6164 -4.78311 2.21809
upperneck -0.705362 -6.63003 0.850716
head 1.52249 -3.28017 -0.40017
lclavicle -9.87656e-15 -9.18195e-16 0
lhumerus -46.5198 -10.5854 93.8983
lradius 49.0295 0 0
lwrist 14.9024 0 0
lhand 7.49786 8.70915 0
lfingers 7.12502 0 0
lthumb 32.7439 35.7084 0
rclavicle -9.87656e-15 -9.18195e-16 0
rhumerus -42.525 1.32049 -70.1043
rradius 50.2226 0 0
rwrist 4.01744 0 0
rhand -22.1366 -16.0622 0
rfingers 7.12502 0 0
rthumb 4.27689 -45.9989 0
106
root 7.53062 16.7313 -26.6477 1.59258 12.283 -3.03397
lfemur -23.6313 -2.46527 -12.7543
ltibia 37.3992 0 0
lfoot -17.3285 -7.73592 0
ltoes 24.8613 0 0
rfemur -41.2156 -4.75181 1.11259
rtibia 89.2151 0 0
rfoot 33.361 22.0951 0
rtoes 18.775 0 0
lowerback 3.15315 1.13213 -0.317021
upperback -0.297715 1.54298 2.05108
thorax -2.13833 0.786902 2.20754
lowerneck -10.6307 -4.8356 2.16485
upperneck -0.487372 -6.69874 0.822634
head 1.59477 -3.31149 -0.407235
lclavicle -1.05232e-14 -1.78906e-15 0
lhumerus -46.6826 -10.7064 94.0168
lradius 49.2289 0 0
lwrist 15.1652 0 0
lhand 8.32967 9.00768 0
lfingers 7.12502 0 0
lthumb 33.5404 35.8923 0
rclavicle -1.05232e-14 -1.78906e-15 0
rhumerus -42.7698 1.23965 -69.1841
rradius 50.4904 0 0
rwrist 3.87067 0 0
rhand -22.1336 -15.8497 0
rfingers 7.12502 0 0
rthumb 4.27979 -45.7864 0
107
root 7.55364 16.7379 -26.6372 1.04275 12.0759 -2.7973
lfemur -22.7057 -1.88188 -13.0637
ltibia 37.0238 0 0
lfoot -17.1992 -7.85207 0
ltoes 25.1682 0 0
rfemur -42.9448 -5.67665 2.64873
rtibia 87.2617 0 0
rfoot 31.7729 22.0852 0
rtoes 16.3092 0 0
lowerback 3.73073 0.997889 -0.530581
upperback -0.0399952 1.33195 1.98209
thorax -2.17231 0.680078 2.2854
lowerneck -10.7107 -4.67192 2.10526
upperneck -0.400415 -6.47814 0.852029
head 1.6414 -3.1998 -0.379147
lclavicle -1.03368e-14 -6.81548e-16 0
lhumerus -46.4136 -10.9379 93.9174
lradius 49.3052 0 0
lwrist 15.0775 0 0
lhand 8.26373 8.8646 0
lfingers 7.12502 0 0
lthumb 33.4777 35.7624 0
rclavicle -1.03368e-14 -6.81548e-16 0
rhumerus -42.6709 0.724415 -68.4903
rradius 51.2916 0 0
rwrist 3.24381 0 0
rhand -20.6108 -15.9414 0
rfingers 7.12502 0 0
rthumb 5.74172 -45.7173 0
108
root 7.57666 16.7444 -26.6267 0.492924 11.8687 -2.56062
lfemur -21.7801 -1.29848 -13.3731
ltibia 36.6485 0 0
lfoot -17.07 -7.96822 0
ltoes 25.4751 0 0
rfemur -44.6739 -6.60149 4.18488
rtibia 85.3084 0 0
rfoot 30.1847 22.0754 0
rtoes 13.8434 0 0
lowerback 4.30832 0.863648 -0.744141
upperback 0.217725 1.12093 1.9131
thorax -2.20628 0.573253 2.36326
lowerneck -10.7906 -4.50825 2.04567
upperneck -0.313458 -6.25753 0.881424
head 1.68803 -3.08811 -0.351058
lclavicle -1.01505e-14 4.25965e-16 0
lhumerus -46.1446 -11.1694 93.818
lradius 49.3816 0 0
lwrist 14.9899 0 0
lhand 8.19779 8.72152 0
lfingers 7.12502 0 0
lthumb 33.415 35.6325 0
rclavicle -1.01505e-14 4.25965e-16 0
rhumerus -42.5721 0.20918 -67.7964
rradius 52.0928 0 0
rwrist 2.61695 0 0
rhand -19.0879 -16.0331 0
rfingers 7.12502 0 0
rthumb 7.20365 -45.6482 0
109
root 7.59967 16.751 -26.6163 -0.0569043 11.6616 -2.32395
lfemur -20.8544 -0.71509 -13.6825
ltibia 36.2731 0 0
lfoot -16.9407 -8.08437 0
ltoes 25.782 0 0
rfemur -46.4031 -7.52632 5.72102
rtibia 83.355 0 0
rfoot 28.5966 22.0655 0
rtoes 11.3776 0 0
lowerback 4.8859 0.729407 -0.957701
upperback 0.475444 0.909904 1.8441
thorax -2.24026 0.466429 2.44111
lowerneck -10.8706 -4.34457 1.98607
upperneck -0.226502 -6.03693 0.910819
head 1.73467 -2.97641 -0.32297
lclavicle -9.96411e-15 1.53348e-15 0
lhumerus -45.8756 -11.4008 93.7186
lradius 49.4579 0 0
lwrist 14.9022 0 0
lhand 8.13185 8.57843 0
lfingers 7.12502 0 0
lthumb 33.3522 35.5025 0
rclavicle -9.96411e-15 1.53348e-15 0
rhumerus -42.4732 -0.306056 -67.1026
rradius 52.8939 0 0
rwrist 1.99008 0 0
rhand -17.5651 -16.1247 0
rfingers 7.12502 0 0
rthumb 8.66558 -45.5792 0
110
root 7.62269 16.7575 -26.6058 -0.606732 11.4544 -2.08727
lfemur -19.9288 -0.131697 -13.9919
ltibia 35.8978 0 0
lfoot -16.8114 -8.20053 0
ltoes 26.089 0 0
rfemur -48.1323 -8.45116 7.25716
rtibia 81.4017 0 0
rfoot 27.0085 22.0557 0
rtoes 8.91176 0 0
lowerback 5.46348 0.595166 -1.17126
upperback 0.733164 0.698879 1.77511
thorax -2.27423 0.359604 2.51897
lowerneck -10.9506 -4.18089 1.92648
upperneck -0.139545 -5.81633 0.940214
head 1.7813 -2.86472 -0.294881
lclavicle -9.77775e-15 2.64099e-15 0
lhumerus -45.6066 -11.6323 93.6191
lradius 49.5342 0 0
lwrist 14.8145 0 0
lhand 8.06591 8.43535 0
lfingers 7.12502 0 0
lthumb 33.2895 35.3726 0
rclavicle -9.77775e-15 2.64099e-15 0
rhumerus -42.3743 -0.821291 -66.4087
rradius 53.6951 0 0
rwrist 1.36322 0 0
rhand -16.0422 -16.2164 0
rfingers 7.12502 0 0
rthumb 10.1275 -45.5101 0
